<svg xmlns="http://www.w3.org/2000/svg" viewBox="0 0 336.29 336.02">
    <defs>
        <style>
            .cls-1{
            fill:black;
            }
            .cls-2{
            fill:orange;
            }
            .cls-3{
            fill:#ffffff;
            stroke:#fff;
            stroke-miterlimit:10;
            stroke-width:2px;
            }
        </style>
    </defs>
    <title>add-image</title>
    <g id="Layer_2">
        <g id="Layer_1-2">
            <path class="cls-1"
                  d="M9.15,288.61c-4.72-9.47-6.88-19.62-8.29-30C0,251.84.2,245.12.2,238.4c-.05-45.75-.54-91.5.22-137.23C.83,76,9.51,53.49,29.24,36.54c11.11-9.54,24.24-15.07,38.55-18a131,131,0,0,1,26.37-2.3q64.11.11,128.23,0c1.5,0,3,.13,4.49.2-.81,3.13-2.14,6.23-2.32,9.4a463.48,463.48,0,0,0,0,60.21,26.24,26.24,0,0,0,10.29,19.24c6.87,5.43,14.92,6.67,23.22,6.8,12.23.2,24.48,0,36.72.08,8.38,0,16.69-.25,24.7-3.08.07.75.2,1.49.2,2.23q0,47.35,0,94.71c-7.6-6.46-15.32-12.78-22.78-19.41-13.72-12.2-30.3-14.27-45-4.68-6,3.94-11.24,9.07-16.74,13.78-17.91,15.33-35.63,30.88-53.72,46-7.46,6.23-16.39,8.38-26.25,7.26-9-1-15.81-5.6-22.36-11.17-13.44-11.43-29.92-12.35-44.52-2.56Q68.16,248.89,48,262.45,28.54,275.52,9.15,288.61ZM111.87,150c19.53.84,37.95-15.47,38.22-37.79.26-20.88-17.11-38-38.07-38.06S73.66,91.12,73.8,112C74,134.51,92.71,150.77,111.87,150Z"/>
            <path class="cls-2"
                  d="M9.15,288.61Q28.54,275.53,48,262.45q20.19-13.57,40.41-27.12c14.6-9.79,31.08-8.87,44.52,2.56,6.55,5.57,13.41,10.15,22.36,11.17,9.86,1.12,18.79-1,26.25-7.26,18.09-15.12,35.81-30.67,53.72-46,5.5-4.71,10.73-9.84,16.74-13.78,14.67-9.59,31.25-7.52,45,4.68,7.46,6.63,15.18,13,22.78,19.41-.27,20.57,1.95,41.25-2.16,61.65-7.49,37.25-32.5,60.93-70,66.71A121.3,121.3,0,0,1,228.89,336c-47.35,0-94.71.22-142.06-.21C66.44,335.58,47.35,330,31,317.1A70.16,70.16,0,0,1,9.15,288.61Z"/>
            <path class="cls-2"
                  d="M319.53,109.17c-8,2.83-16.32,3.13-24.7,3.08-12.24-.09-24.49.12-36.72-.08-8.3-.13-16.35-1.37-23.22-6.8A26.24,26.24,0,0,1,224.6,86.13a463.48,463.48,0,0,1,0-60.21c.18-3.17,1.51-6.27,2.32-9.4C233.5,4.14,244.52,0,257.77,0c15,0,30,0,45,0,6.43,0,12.7,1,18.43,4.14,9.52,5.27,14,13.88,14.48,24.29.87,18.34.79,36.72,0,55.06C335.25,94.92,329.8,103.7,319.53,109.17ZM257.78,65.85v-.06c3.13,0,6.26.14,9.37-.05,2.42-.15,3.26.6,3.19,3.1-.17,6,0,12-.06,18a11.09,11.09,0,0,0,2.09,7,9.55,9.55,0,0,0,10.4,3.38c3.86-1.12,6.74-5,6.82-9.78.09-6.12.1-12.24-.13-18.36-.09-2.69.82-3.38,3.39-3.3,5.87.17,11.74.08,17.61,0,6.5,0,10.85-4,10.92-9.81s-4.22-9.55-11-9.6c-6,0-12-.1-18,0-2.32.05-3-.73-2.95-3,.16-6,.16-12,.12-18,0-6.65-3.92-10.89-9.78-10.84-5.66.06-9.45,4.27-9.52,10.73-.06,5.74-.18,11.49.05,17.23.13,3.05-.66,4.14-3.88,4-6.11-.28-12.24-.29-18.35-.11-5.86.17-9.69,4.27-9.6,9.8s4.09,9.4,9.9,9.54C251.54,65.91,254.66,65.85,257.78,65.85Z"/>
            <path class="cls-2"
                  d="M111.87,150C92.71,150.77,74,134.51,73.8,112,73.66,91.12,91,74.09,112,74.1s38.33,17.18,38.07,38.06C149.82,134.48,131.4,150.79,111.87,150Z"/>
            <path class="cls-3"
                  d="M257.78,65.85c-3.12,0-6.24.06-9.36,0-5.81-.14-9.82-4-9.9-9.54s3.74-9.63,9.6-9.8c6.11-.18,12.24-.17,18.35.11,3.22.15,4-.94,3.88-4-.23-5.74-.11-11.49-.05-17.23.07-6.46,3.86-10.67,9.52-10.73,5.86-.05,9.75,4.19,9.78,10.84,0,6,0,12-.12,18-.06,2.27.63,3.05,2.95,3,6-.14,12-.08,18,0,6.75.05,11,3.84,11,9.6S317,65.8,310.46,65.85c-5.87,0-11.74.12-17.61,0-2.57-.08-3.48.61-3.39,3.3.23,6.12.22,12.24.13,18.36-.08,4.73-3,8.66-6.82,9.78a9.55,9.55,0,0,1-10.4-3.38,11.09,11.09,0,0,1-2.09-7c0-6-.11-12,.06-18,.07-2.5-.77-3.25-3.19-3.1-3.11.19-6.24.05-9.37.05Z"/>
        </g>
    </g>
</svg>
