<svg xmlns="http://www.w3.org/2000/svg" viewBox="0 0 174.23 76">
    <defs>
        <style>.cls-1{fill:#f1a721;}</style>
    </defs>
    <title>Asset 3</title>
    <g id="Layer_2">
        <g id="Layer_1-2" >
            <path class="cls-1"
                  d="M86.27,30.7c-7.32-1.16-13.12.91-18.38,6.57C57.78,48.14,47,58.43,36.5,68.93c-9.08,9-21.9,9.37-30.42.82-8.35-8.39-8.1-21.17.76-30.12q17.38-17.58,35-35c6.24-6.21,13-6.16,19.33.09q11.71,11.6,23.32,23.31c.77.77,1.81,1.41,1.75,2.73Z"/>
            <path class="cls-1"
                  d="M86.2,30.78c5.21-3.53,9-8.53,13.51-12.83,5-4.83,9.78-9.95,14.89-14.69a11.88,11.88,0,0,1,16.63.28c8.12,7.94,16.09,16,24.11,24.08.58.58,1.62,1,1.27,2.08s-1.49.79-2.27.71c-6.72-.76-11.19,2.83-15.54,7.33-10.41,10.76-21,21.32-31.69,31.85-6,5.94-13.31,7.89-21.36,5.26S72.89,66.44,71.6,58c-1-6.55,1-12.28,5.39-17.25,3-3.42,6.94-6,9.28-10.09Z"/>
            <path class="cls-1"
                  d="M153,75.93c-6.84.11-12.28-3.55-17-8.67-1-1.12-.79-1.88.15-2.82,6.53-6.53,12.79-13.34,19.61-19.54s16.11-2.88,18.06,5.88C176.59,63.59,166.52,76.07,153,75.93Z"/>
        </g>
    </g>
</svg>
